<svg version="1.2" xmlns="http://www.w3.org/2000/svg" viewBox="0 0 219 219" width="219" height="219">
	<defs>
		<linearGradient id="g1" x2="1" gradientUnits="userSpaceOnUse" gradientTransform="matrix(208,208,-180.717,180.717,6,6)">
			<stop offset="0" stop-color="#3b82f6"/>
			<stop offset="1" stop-color="#1e40af"/>
		</linearGradient>
	</defs>
	<style>
		.s0 { fill: url(#g1) } 
	</style>
	<g id="Folder 1">
		<path fill-rule="evenodd" class="s0" d="m214 110c0 24-10 47-27 64l11 40-40-11c-15 7-31 11-48 11-30.21 0-57.16-12.48-76.05-32.63l30.74-25.68c11.49 11.39 27.41 18.31 45.31 18.31 36 0 64-28 64-64 0-5.24-0.59-10.31-1.72-15.15l-23.03 17.74-13.73-17.42 52.77-42.71 5.48-4.57c12.74 17.26 20.23 38.71 20.23 62.11zm-208 0c0-58 46-104 104-104 24.36 0 46.6 8.11 64.2 21.82l-31.91 26.6c-9.41-5.37-20.42-8.42-32.29-8.42-36 0-64 28-64 64 0 7.65 1.27 14.95 3.61 21.69l-31.96 26.64c-7.45-14.39-11.65-30.81-11.65-48.33z"/>
	</g>
</svg>